<svg xmlns="http://www.w3.org/2000/svg" viewBox="0 0 23.32 23.32"><defs><style>.cls-1{fill:#b32317;}</style></defs><g id="Layer_2" data-name="Layer 2"><g id="Layer_1-2" data-name="Layer 1"><path class="cls-1" d="M11.66,0A11.66,11.66,0,1,0,23.32,11.66,11.66,11.66,0,0,0,11.66,0ZM8.92,16.46H6.68c0-1.92,0-3.84,0-5.76V10H8.92ZM8.1,9.1A1.42,1.42,0,0,1,7,8.87a1.11,1.11,0,0,1,.45-2l.2,0H8l.26.07a1.09,1.09,0,0,1,.81,1.13A1.15,1.15,0,0,1,8.1,9.1Zm8.66,7.36H14.52c0-1.23,0-2.47,0-3.71A1.12,1.12,0,0,0,13,11.61a1.24,1.24,0,0,0-.81,1.25c0,1.2,0,2.4,0,3.6H10c0-.76,0-1.53,0-2.29,0-1.3,0-2.61,0-3.91A2.29,2.29,0,0,1,10,10h2.18v.84a.72.72,0,0,0,.15-.13,2.37,2.37,0,0,1,2.53-.81,2.53,2.53,0,0,1,1.91,2.39Z"/></g></g></svg>