<svg xmlns="http://www.w3.org/2000/svg" viewBox="0 0 23.34 23.34"><defs><style>.cls-1{fill:#b32317;}</style></defs><g id="Layer_2" data-name="Layer 2"><g id="Layer_1-2" data-name="Layer 1"><path class="cls-1" d="M11.67,0A11.67,11.67,0,1,0,23.34,11.67,11.66,11.66,0,0,0,11.67,0ZM16,9.46c0,.1,0,.19,0,.29a6.32,6.32,0,0,1-9.72,5.32,4.71,4.71,0,0,0,.53,0,4.5,4.5,0,0,0,2.76-.95,2.24,2.24,0,0,1-2.08-1.54,3,3,0,0,0,.42,0,2.33,2.33,0,0,0,.59-.08A2.21,2.21,0,0,1,6.7,10.39v0a2.26,2.26,0,0,0,1,.27,2.2,2.2,0,0,1-1-1.84A2.13,2.13,0,0,1,7,7.68,6.27,6.27,0,0,0,11.59,10a2.1,2.1,0,0,1-.06-.51,2.22,2.22,0,0,1,2.22-2.21,2.17,2.17,0,0,1,1.62.7,4.63,4.63,0,0,0,1.41-.54,2.26,2.26,0,0,1-1,1.23,4.94,4.94,0,0,0,1.28-.35A4.63,4.63,0,0,1,16,9.46Z"/></g></g></svg>